<?xml version="1.0" encoding="UTF-8" standalone="no"?>
<!DOCTYPE svg PUBLIC "-//W3C//DTD SVG 1.1//EN"
 "http://www.w3.org/Graphics/SVG/1.1/DTD/svg11.dtd">
<!-- Generated by graphviz version 2.42.4 (0)
 -->
<!-- Title: G Pages: 1 -->
<svg width="726pt" height="692pt"
 viewBox="0.00 0.00 725.61 691.84" xmlns="http://www.w3.org/2000/svg" xmlns:xlink="http://www.w3.org/1999/xlink">
<g id="graph0" class="graph" transform="scale(1 1) rotate(0) translate(4 687.84)">
<title>G</title><style>.edge>path:hover{stroke-width:8}</style>
<polygon fill="white" stroke="transparent" points="-4,4 -4,-687.84 721.61,-687.84 721.61,4 -4,4"/>
<!-- controller -->
<g id="node1" class="node">
<title>controller</title><style>.edge>path:hover{stroke-width:8}</style>
<ellipse fill="#e72222" stroke="black" cx="302.94" cy="-665.84" rx="38.03" ry="18"/>
<text text-anchor="middle" x="302.94" y="-663.34" font-family="Helvetica,sans-Serif" font-size="10.00" fill="#ffffff">controller</text>
</g>
<!-- Main -->
<g id="node4" class="node">
<title>Main</title><style>.edge>path:hover{stroke-width:8}</style>
<polygon fill="blue" stroke="black" points="581.94,-295.43 527.94,-295.43 527.94,-259.43 581.94,-259.43 581.94,-295.43"/>
<text text-anchor="middle" x="554.94" y="-274.93" font-family="Helvetica,sans-Serif" font-size="10.00" fill="white">Main</text>
</g>
<!-- controller&#45;&gt;Main -->
<g id="edge1" class="edge">
<title>controller&#45;&gt;Main</title><style>.edge>path:hover{stroke-width:8}</style>
<path fill="none" stroke="black" d="M579.94,-581.84C624.01,-488.91 627.69,-441.52 579.94,-350.43"/>
<path fill="none" stroke="black" d="M579.94,-348.43C571.95,-335.11 565.95,-318.85 561.83,-305.35"/>
<polygon fill="#e72222" stroke="black" points="565.18,-304.3 559.05,-295.66 558.45,-306.24 565.18,-304.3"/>
</g>
<!-- Main_py -->
<g id="node5" class="node">
<title>Main_py</title><style>.edge>path:hover{stroke-width:8}</style>
<ellipse fill="#668547" stroke="black" cx="602.94" cy="-18" rx="32.93" ry="18"/>
<text text-anchor="middle" x="602.94" y="-15.5" font-family="Helvetica,sans-Serif" font-size="10.00" fill="#ffffff">Main.py</text>
</g>
<!-- controller&#45;&gt;Main_py -->
<g id="edge2" class="edge">
<title>controller&#45;&gt;Main_py</title><style>.edge>path:hover{stroke-width:8}</style>
<path fill="none" stroke="black" d="M265.12,-662.85C199.7,-658.53 69.7,-645.8 41.94,-611.84 -32.92,-520.25 -1.67,-422.74 91.94,-350.43"/>
<path fill="none" stroke="black" d="M91.94,-348.43C100.85,-341.43 100.65,-336.18 110.94,-331.43 190.14,-294.85 449.55,-349.65 499.94,-278.43"/>
<path fill="none" stroke="black" d="M499.94,-276.43C543.95,-214.22 491.15,-169.92 536.94,-109 557.01,-82.29 601.31,-106.37 602.94,-73"/>
<path fill="none" stroke="black" d="M602.94,-72C602.91,-63.68 602.91,-54.63 602.91,-46.4"/>
<polygon fill="#e72222" stroke="black" points="606.41,-46.19 602.91,-36.19 599.41,-46.18 606.41,-46.19"/>
</g>
<!-- view_IfBlockFrame -->
<g id="node9" class="node">
<title>view_IfBlockFrame</title><style>.edge>path:hover{stroke-width:8}</style>
<polygon fill="blue" stroke="black" points="551.44,-517.85 470.44,-517.85 470.44,-481.85 551.44,-481.85 551.44,-517.85"/>
<text text-anchor="middle" x="510.94" y="-502.85" font-family="Helvetica,sans-Serif" font-size="10.00" fill="white">view.</text>
<text text-anchor="middle" x="510.94" y="-491.85" font-family="Helvetica,sans-Serif" font-size="10.00" fill="white">IfBlockFrame</text>
</g>
<!-- controller&#45;&gt;view_IfBlockFrame -->
<g id="edge3" class="edge">
<title>controller&#45;&gt;view_IfBlockFrame</title><style>.edge>path:hover{stroke-width:8}</style>
<path fill="none" stroke="black" d="M339.6,-660.68C410.01,-651.75 559.06,-627.87 579.94,-583.84"/>
<path fill="none" stroke="black" d="M579.94,-581.84C590.42,-559.74 571.6,-538.84 550.98,-523.8"/>
<polygon fill="#e72222" stroke="black" points="552.96,-520.92 542.74,-518.13 549,-526.68 552.96,-520.92"/>
</g>
<!-- Controller_Connection -->
<g id="node2" class="node">
<title>Controller_Connection</title><style>.edge>path:hover{stroke-width:8}</style>
<ellipse fill="#b34c4c" stroke="black" cx="615.94" cy="-202.21" rx="50.41" ry="21.43"/>
<text text-anchor="middle" x="615.94" y="-205.21" font-family="Helvetica,sans-Serif" font-size="10.00" fill="#ffffff">controller.</text>
<text text-anchor="middle" x="615.94" y="-194.21" font-family="Helvetica,sans-Serif" font-size="10.00" fill="#ffffff">Connection</text>
</g>
<!-- Controller_ConnectionManager -->
<g id="node3" class="node">
<title>Controller_ConnectionManager</title><style>.edge>path:hover{stroke-width:8}</style>
<polygon fill="blue" stroke="black" points="659.94,-145 545.94,-145 545.94,-109 659.94,-109 659.94,-145"/>
<text text-anchor="middle" x="602.94" y="-130" font-family="Helvetica,sans-Serif" font-size="10.00" fill="white">controller.</text>
<text text-anchor="middle" x="602.94" y="-119" font-family="Helvetica,sans-Serif" font-size="10.00" fill="white">ConnectionManager</text>
</g>
<!-- Controller_Connection&#45;&gt;Controller_ConnectionManager -->
<g id="edge4" class="edge">
<title>Controller_Connection&#45;&gt;Controller_ConnectionManager</title><style>.edge>path:hover{stroke-width:8}</style>
<path fill="none" stroke="black" d="M612.32,-180.82C610.91,-172.88 609.27,-163.66 607.76,-155.17"/>
<polygon fill="#b34c4c" stroke="black" points="611.21,-154.54 606.01,-145.31 604.31,-155.77 611.21,-154.54"/>
</g>
<!-- Controller_ConnectionManager&#45;&gt;Main_py -->
<g id="edge6" class="edge">
<title>Controller_ConnectionManager&#45;&gt;Main_py</title><style>.edge>path:hover{stroke-width:8}</style>
<path fill="none" stroke="black" d="M602.78,-108.81C602.72,-98.44 602.72,-84.96 602.94,-73"/>
</g>
<!-- Main&#45;&gt;Controller_ConnectionManager -->
<g id="edge7" class="edge">
<title>Main&#45;&gt;Controller_ConnectionManager</title><style>.edge>path:hover{stroke-width:8}</style>
<path fill="none" stroke="black" d="M550.7,-249.12C548.78,-229.5 548.54,-202.79 556.94,-181 560.92,-170.66 567.88,-160.98 575.2,-152.79"/>
<polygon fill="blue" stroke="black" points="547.24,-249.69 551.89,-259.21 554.19,-248.87 547.24,-249.69"/>
<polygon fill="blue" stroke="black" points="577.86,-155.08 582.24,-145.43 572.8,-150.24 577.86,-155.08"/>
</g>
<!-- model -->
<g id="node6" class="node">
<title>model</title><style>.edge>path:hover{stroke-width:8}</style>
<ellipse fill="#3bcece" stroke="black" cx="689.94" cy="-665.84" rx="27.84" ry="18"/>
<text text-anchor="middle" x="689.94" y="-663.34" font-family="Helvetica,sans-Serif" font-size="10.00" fill="#000000">model</text>
</g>
<!-- model&#45;&gt;Main -->
<g id="edge8" class="edge">
<title>model&#45;&gt;Main</title><style>.edge>path:hover{stroke-width:8}</style>
<path fill="none" stroke="black" d="M689.94,-581.84C662.17,-518.22 711.49,-491.63 689.94,-425.64"/>
<path fill="none" stroke="black" d="M689.94,-423.64C672.08,-367.69 607.2,-402.44 579.94,-350.43"/>
</g>
<!-- model&#45;&gt;Main_py -->
<g id="edge9" class="edge">
<title>model&#45;&gt;Main_py</title><style>.edge>path:hover{stroke-width:8}</style>
<path fill="none" stroke="black" d="M689.94,-423.64C670.31,-362.16 674.06,-340.98 689.94,-278.43"/>
</g>
<!-- model&#45;&gt;view_IfBlockFrame -->
<g id="edge10" class="edge">
<title>model&#45;&gt;view_IfBlockFrame</title><style>.edge>path:hover{stroke-width:8}</style>
<path fill="none" stroke="black" d="M693.74,-647.91C696.69,-630.95 698.94,-604.46 689.94,-583.84"/>
<path fill="none" stroke="black" d="M689.94,-581.84C668.63,-533.02 606.69,-513.62 561.63,-505.92"/>
<polygon fill="#3bcece" stroke="black" points="562.15,-502.46 551.72,-504.37 561.06,-509.37 562.15,-502.46"/>
</g>
<!-- Model_DataModel -->
<g id="node7" class="node">
<title>Model_DataModel</title><style>.edge>path:hover{stroke-width:8}</style>
<ellipse fill="#47c2c2" stroke="black" cx="499.94" cy="-424.64" rx="49.49" ry="21.43"/>
<text text-anchor="middle" x="499.94" y="-427.64" font-family="Helvetica,sans-Serif" font-size="10.00" fill="#000000">model.</text>
<text text-anchor="middle" x="499.94" y="-416.64" font-family="Helvetica,sans-Serif" font-size="10.00" fill="#000000">DataModel</text>
</g>
<!-- Model_DataModel&#45;&gt;Main -->
<g id="edge11" class="edge">
<title>Model_DataModel&#45;&gt;Main</title><style>.edge>path:hover{stroke-width:8}</style>
<path fill="none" stroke="black" d="M499.94,-348.43C503.17,-330.93 514.61,-315.02 526.23,-302.8"/>
<polygon fill="#47c2c2" stroke="black" points="528.77,-305.21 533.42,-295.69 523.85,-300.23 528.77,-305.21"/>
</g>
<!-- Model_DataModel&#45;&gt;Main_py -->
<g id="edge12" class="edge">
<title>Model_DataModel&#45;&gt;Main_py</title><style>.edge>path:hover{stroke-width:8}</style>
<path fill="none" stroke="black" d="M497.97,-403.26C497.02,-388.47 496.69,-368.05 499.94,-350.43"/>
<path fill="none" stroke="black" d="M499.94,-348.43C505.58,-317.83 481.97,-303.82 499.94,-278.43"/>
</g>
<!-- view -->
<g id="node8" class="node">
<title>view</title><style>.edge>path:hover{stroke-width:8}</style>
<ellipse fill="#8510f9" stroke="black" cx="634.94" cy="-349.43" rx="27" ry="18"/>
<text text-anchor="middle" x="634.94" y="-346.93" font-family="Helvetica,sans-Serif" font-size="10.00" fill="#ffffff">view</text>
</g>
<!-- view&#45;&gt;Main -->
<g id="edge13" class="edge">
<title>view&#45;&gt;Main</title><style>.edge>path:hover{stroke-width:8}</style>
<path fill="none" stroke="black" d="M619.13,-334.6C608.6,-325.38 594.48,-313.03 582.16,-302.25"/>
<polygon fill="#8510f9" stroke="black" points="584.22,-299.4 574.39,-295.45 579.61,-304.66 584.22,-299.4"/>
</g>
<!-- view&#45;&gt;Main_py -->
<g id="edge14" class="edge">
<title>view&#45;&gt;Main_py</title><style>.edge>path:hover{stroke-width:8}</style>
<path fill="none" stroke="black" d="M651.82,-335.03C666.1,-322.31 685,-301.71 689.94,-278.43"/>
<path fill="none" stroke="black" d="M689.94,-276.43C705.5,-203.06 711.17,-170.98 668.94,-109 650.12,-81.39 602.33,-106.41 602.94,-73"/>
</g>
<!-- view_MasterFrame -->
<g id="node10" class="node">
<title>view_MasterFrame</title><style>.edge>path:hover{stroke-width:8}</style>
<polygon fill="blue" stroke="black" points="132.44,-442.64 51.44,-442.64 51.44,-406.64 132.44,-406.64 132.44,-442.64"/>
<text text-anchor="middle" x="91.94" y="-427.64" font-family="Helvetica,sans-Serif" font-size="10.00" fill="white">view.</text>
<text text-anchor="middle" x="91.94" y="-416.64" font-family="Helvetica,sans-Serif" font-size="10.00" fill="white">MasterFrame</text>
</g>
<!-- view_IfBlockFrame&#45;&gt;view_MasterFrame -->
<g id="edge15" class="edge">
<title>view_IfBlockFrame&#45;&gt;view_MasterFrame</title><style>.edge>path:hover{stroke-width:8}</style>
<path fill="none" stroke="black" d="M460.3,-490.01C379.66,-475.91 222.97,-448.53 142.42,-434.46"/>
<polygon fill="blue" stroke="black" points="459.93,-493.49 470.38,-491.77 461.13,-486.6 459.93,-493.49"/>
<polygon fill="blue" stroke="black" points="142.97,-431 132.52,-432.73 141.77,-437.9 142.97,-431"/>
</g>
<!-- view_MasterFrame&#45;&gt;Main -->
<g id="edge16" class="edge">
<title>view_MasterFrame&#45;&gt;Main</title><style>.edge>path:hover{stroke-width:8}</style>
<path fill="none" stroke="black" d="M132.44,-423.86C199.71,-422.79 337.39,-414.43 441.94,-367.43 464.98,-357.07 466.14,-347.12 485.94,-331.43 498.44,-321.51 512.37,-310.76 524.43,-301.54"/>
<polygon fill="blue" stroke="black" points="526.6,-304.29 532.43,-295.44 522.36,-298.72 526.6,-304.29"/>
</g>
<!-- view_MasterFrame&#45;&gt;Main_py -->
<g id="edge17" class="edge">
<title>view_MasterFrame&#45;&gt;Main_py</title><style>.edge>path:hover{stroke-width:8}</style>
<path fill="none" stroke="black" d="M85.35,-406.37C79.97,-388.99 75.64,-363.01 91.94,-350.43"/>
</g>
<!-- view_MenuFrame -->
<g id="node11" class="node">
<title>view_MenuFrame</title><style>.edge>path:hover{stroke-width:8}</style>
<polygon fill="blue" stroke="black" points="433.44,-367.43 332.44,-367.43 332.44,-331.43 433.44,-331.43 433.44,-367.43"/>
<text text-anchor="middle" x="382.94" y="-346.93" font-family="Helvetica,sans-Serif" font-size="10.00" fill="white">view.MenuFrame</text>
</g>
<!-- view_MasterFrame&#45;&gt;view_MenuFrame -->
<g id="edge19" class="edge">
<title>view_MasterFrame&#45;&gt;view_MenuFrame</title><style>.edge>path:hover{stroke-width:8}</style>
<path fill="none" stroke="black" d="M142.44,-411.92C187.13,-401.43 254.36,-385.32 322.22,-367.57"/>
<polygon fill="blue" stroke="black" points="141.47,-408.56 132.53,-414.25 143.07,-415.37 141.47,-408.56"/>
<polygon fill="blue" stroke="black" points="323.45,-370.86 332.24,-364.94 321.67,-364.09 323.45,-370.86"/>
</g>
<!-- view_QueryFrame -->
<g id="node12" class="node">
<title>view_QueryFrame</title><style>.edge>path:hover{stroke-width:8}</style>
<polygon fill="blue" stroke="black" points="197.44,-367.43 120.44,-367.43 120.44,-331.43 197.44,-331.43 197.44,-367.43"/>
<text text-anchor="middle" x="158.94" y="-352.43" font-family="Helvetica,sans-Serif" font-size="10.00" fill="white">view.</text>
<text text-anchor="middle" x="158.94" y="-341.43" font-family="Helvetica,sans-Serif" font-size="10.00" fill="white">QueryFrame</text>
</g>
<!-- view_MasterFrame&#45;&gt;view_QueryFrame -->
<g id="edge20" class="edge">
<title>view_MasterFrame&#45;&gt;view_QueryFrame</title><style>.edge>path:hover{stroke-width:8}</style>
<path fill="none" stroke="black" d="M114.68,-398.79C121.56,-391.27 129.12,-383 136.02,-375.47"/>
<polygon fill="blue" stroke="black" points="111.99,-396.55 107.82,-406.29 117.15,-401.27 111.99,-396.55"/>
<polygon fill="blue" stroke="black" points="139.01,-377.39 143.17,-367.65 133.84,-372.67 139.01,-377.39"/>
</g>
<!-- view_RepoFrame -->
<g id="node13" class="node">
<title>view_RepoFrame</title><style>.edge>path:hover{stroke-width:8}</style>
<polygon fill="blue" stroke="black" points="313.94,-367.43 215.94,-367.43 215.94,-331.43 313.94,-331.43 313.94,-367.43"/>
<text text-anchor="middle" x="264.94" y="-346.93" font-family="Helvetica,sans-Serif" font-size="10.00" fill="white">view.RepoFrame</text>
</g>
<!-- view_MasterFrame&#45;&gt;view_RepoFrame -->
<g id="edge21" class="edge">
<title>view_MasterFrame&#45;&gt;view_RepoFrame</title><style>.edge>path:hover{stroke-width:8}</style>
<path fill="none" stroke="black" d="M141.91,-402.49C164.99,-392.72 192.34,-381.15 215.38,-371.4"/>
<polygon fill="blue" stroke="black" points="140.34,-399.35 132.5,-406.47 143.07,-405.8 140.34,-399.35"/>
<polygon fill="blue" stroke="black" points="216.79,-374.6 224.63,-367.48 214.06,-368.16 216.79,-374.6"/>
</g>
<!-- view_Util -->
<g id="node14" class="node">
<title>view_Util</title><style>.edge>path:hover{stroke-width:8}</style>
<ellipse fill="#8553b6" stroke="black" cx="158.94" cy="-499.85" rx="35.14" ry="18"/>
<text text-anchor="middle" x="158.94" y="-497.35" font-family="Helvetica,sans-Serif" font-size="10.00" fill="#ffffff">view.util</text>
</g>
<!-- view_Util&#45;&gt;view_MasterFrame -->
<g id="edge25" class="edge">
<title>view_Util&#45;&gt;view_MasterFrame</title><style>.edge>path:hover{stroke-width:8}</style>
<path fill="none" stroke="black" d="M144.73,-483.33C135.95,-473.73 124.49,-461.21 114.49,-450.29"/>
<polygon fill="#8553b6" stroke="black" points="116.86,-447.69 107.53,-442.68 111.7,-452.42 116.86,-447.69"/>
</g>
<!-- view_Util_FrameUtils -->
<g id="node15" class="node">
<title>view_Util_FrameUtils</title><style>.edge>path:hover{stroke-width:8}</style>
<ellipse fill="#8553b6" stroke="black" cx="99.94" cy="-582.84" rx="49.49" ry="28.98"/>
<text text-anchor="middle" x="99.94" y="-591.34" font-family="Helvetica,sans-Serif" font-size="10.00" fill="#ffffff">view.</text>
<text text-anchor="middle" x="99.94" y="-580.34" font-family="Helvetica,sans-Serif" font-size="10.00" fill="#ffffff">Util.</text>
<text text-anchor="middle" x="99.94" y="-569.34" font-family="Helvetica,sans-Serif" font-size="10.00" fill="#ffffff">FrameUtils</text>
</g>
<!-- view_Util_FrameUtils&#45;&gt;view_MasterFrame -->
<g id="edge26" class="edge">
<title>view_Util_FrameUtils&#45;&gt;view_MasterFrame</title><style>.edge>path:hover{stroke-width:8}</style>
<path fill="none" stroke="black" d="M98.49,-553.56C97.03,-525.02 94.79,-481.27 93.34,-453.05"/>
<polygon fill="#8553b6" stroke="black" points="96.84,-452.87 92.83,-443.06 89.85,-453.23 96.84,-452.87"/>
</g>
</g>
</svg>
